<?xml version="1.0" encoding="UTF-8" standalone="no"?>
<svg
   xmlns:dc="http://purl.org/dc/elements/1.1/"
   xmlns:cc="http://creativecommons.org/ns#"
   xmlns:rdf="http://www.w3.org/1999/02/22-rdf-syntax-ns#"
   xmlns:svg="http://www.w3.org/2000/svg"
   xmlns="http://www.w3.org/2000/svg"
   xmlns:sodipodi="http://sodipodi.sourceforge.net/DTD/sodipodi-0.dtd"
   xmlns:inkscape="http://www.inkscape.org/namespaces/inkscape"
   height="200.00002"
   version="1.1"
   viewBox="0 0 799.99999 1334.5846"
   id="svg4235"
   inkscape:version="0.91 r13725"
   sodipodi:docname="oc-header-grey.svg"
   width="800"
   inkscape:export-filename="/Users/danny/Projects/openCurrents/oc-header-blue2.png"
   inkscape:export-xdpi="90"
   inkscape:export-ydpi="90">
  <metadata
     id="metadata4251">
    <rdf:RDF>
      <cc:Work
         rdf:about="">
        <dc:format>image/svg+xml</dc:format>
        <dc:type
           rdf:resource="http://purl.org/dc/dcmitype/StillImage" />
        <dc:title></dc:title>
      </cc:Work>
    </rdf:RDF>
  </metadata>
  <defs
     id="defs4249" />
  <sodipodi:namedview
     pagecolor="#ffffff"
     bordercolor="#666666"
     borderopacity="1"
     objecttolerance="10"
     gridtolerance="10"
     guidetolerance="10"
     inkscape:pageopacity="1"
     inkscape:pageshadow="2"
     inkscape:window-width="1440"
     inkscape:window-height="804"
     id="namedview4247"
     showgrid="false"
     fit-margin-top="0"
     fit-margin-left="0"
     fit-margin-right="0"
     fit-margin-bottom="0"
     inkscape:zoom="1"
     inkscape:cx="270.17858"
     inkscape:cy="110.9673"
     inkscape:window-x="9"
     inkscape:window-y="0"
     inkscape:window-maximized="0"
     inkscape:current-layer="g4793" />
  <g
     transform="translate(815.20549,173.15641)"
     id="g4237"
     style="fill:none;stroke:#999999">
    <circle
       cx="466.69"
       transform="scale(1,-1)"
       cy="-954.78003"
       r="0"
       id="circle4239"
       style="stroke-width:11" />
    <g
       transform="translate(11.475,0)"
       id="g4241">
      <g
         id="g4796"
         transform="matrix(1.1493774,0,0,1.1493774,-2107.7747,-6.028256)">
        <g
           id="g4151"
           transform="translate(5.8057516,0)">
          <g
             id="g4793"
             transform="matrix(4.889305,0,0,4.889305,-1067.7731,-4233.0595)">
            <path
               style="fill:none;stroke:#888888;stroke-width:12.00012016;stroke-miterlimit:4;stroke-dasharray:none;stroke-opacity:1"
               inkscape:connector-curvature="0"
               id="path4243"
               transform="translate(0,852.36)"
               d="m 509.65,149.95 a 64.066,64.066 0 0 1 -42.959,16.538 64.066,64.066 0 0 1 -64.066,-64.066 64.066,64.066 0 0 1 64.066,-64.066 64.066,64.066 0 0 1 42.961,16.539" />
            <circle
               style="fill:#ffffff;fill-opacity:0;stroke:#888888;stroke-width:11;stroke-opacity:1"
               id="circle4245"
               r="34.557999"
               cx="466.69"
               cy="954.78003" />
          </g>
          <g
             style="font-style:normal;font-weight:normal;font-size:347.85113525px;line-height:125%;font-family:sans-serif;letter-spacing:0px;word-spacing:0px;fill:#ffffff;fill-opacity:1;stroke:none;stroke-width:1px;stroke-linecap:butt;stroke-linejoin:miter;stroke-opacity:1"
             id="text4769">
            <path
               d="m -576.98304,246.51837 q 77.91865,0 126.61781,52.17767 45.91635,50.09056 45.91635,127.31351 0,77.22295 -45.91635,127.31352 -48.69916,52.17767 -126.61781,52.17767 -77.91866,0 -126.61781,-52.17767 -45.91635,-50.09057 -45.91635,-127.31352 0,-77.22295 45.91635,-127.31351 48.69915,-52.17767 126.61781,-52.17767 z m 0,311.67461 q 56.35188,0 89.04989,-38.95932 31.3066,-36.87222 31.3066,-93.22411 0,-56.35188 -31.3066,-93.2241 -32.69801,-38.95933 -89.04989,-38.95933 -56.35189,0 -89.04989,38.95933 -31.3066,36.87222 -31.3066,93.2241 0,56.35189 31.3066,93.22411 32.698,38.95932 89.04989,38.95932 z"
               style="font-style:normal;font-variant:normal;font-weight:normal;font-stretch:normal;font-size:695.70227051px;font-family:Questrial;-inkscape-font-specification:Questrial;fill:#888888;fill-opacity:1"
               id="path4924" />
            <path
               d="m -284.44024,307.74017 q 41.74213,-61.2218 124.5307,-61.2218 75.135847,0 121.7479,52.17767 46.6120517,51.48196 46.6120517,127.31351 0,75.83155 -46.6120517,127.31352 -46.612053,52.17767 -125.22641,52.17767 -78.61436,0 -121.05219,-61.9175 l 0,194.10093 -52.17767,0 0,-485.60019 52.17767,0 0,55.65619 z m 117.57368,-13.91405 q -56.35188,0 -89.04989,38.95933 -31.3066,36.87222 -31.3066,93.2241 0,56.35189 31.3066,93.22411 32.69801,38.95932 89.04989,38.95932 55.65618,0 90.441295,-38.95932 32.698006,-36.87222 32.698006,-93.22411 0,-56.35188 -32.698006,-93.2241 -34.785115,-38.95933 -90.441295,-38.95933 z"
               style="font-style:normal;font-variant:normal;font-weight:normal;font-stretch:normal;font-size:695.70227051px;font-family:Questrial;-inkscape-font-specification:Questrial;fill:#888888;fill-opacity:1"
               id="path4926" />
            <path
               d="m 231.59693,558.19298 q 70.26593,0 100.87683,-58.43899 l 57.04759,0 q -18.08826,47.30776 -57.74329,76.52725 -38.95933,29.2195 -100.87683,29.2195 -78.61435,0 -128.00922,-52.17767 -48.003453,-50.78627 -48.003453,-127.31352 0,-77.22295 45.916353,-127.31351 48.69916,-52.17767 126.61781,-52.17767 77.91865,0 126.61781,52.17767 45.91635,50.09056 45.91635,127.31351 l 0,20.87107 -291.49925,0 q 5.56562,48.00346 38.26363,79.31006 33.39371,32.0023 84.87567,32.0023 z m -4.17421,-264.36686 q -48.00346,0 -80.70146,29.9152 -30.6109,28.52379 -37.56793,74.44014 l 236.53878,0 q -6.95703,-45.91635 -37.56793,-74.44014 -32.698,-29.9152 -80.70146,-29.9152 z"
               style="font-style:normal;font-variant:normal;font-weight:normal;font-stretch:normal;font-size:695.70227051px;font-family:Questrial;-inkscape-font-specification:Questrial;fill:#888888;fill-opacity:1"
               id="path4928" />
            <path
               d="m 515.8891,252.08398 0,54.26478 q 18.78396,-25.04528 45.91635,-42.43784 27.13239,-17.39255 61.9175,-17.39255 34.78512,0 59.8304,9.73983 25.04528,9.73983 43.82924,29.21949 43.13354,42.43784 43.13354,112.00807 l 0,202.44936 -52.17767,0 0,-201.05796 q 0,-48.00345 -27.13239,-76.52725 -27.13238,-28.52379 -70.26593,-28.52379 -43.82924,0 -74.44014,29.2195 -30.6109,29.91519 -30.6109,76.52725 l 0,200.36225 -52.17767,0 0,-347.85114 52.17767,0 z"
               style="font-style:normal;font-variant:normal;font-weight:normal;font-stretch:normal;font-size:695.70227051px;font-family:Questrial;-inkscape-font-specification:Questrial;fill:#888888;fill-opacity:1"
               id="path4930" />
          </g>
          <g
             style="font-style:normal;font-weight:normal;font-size:347.85113525px;line-height:125%;font-family:sans-serif;letter-spacing:0px;word-spacing:0px;fill:#1f4795;fill-opacity:1;stroke:none;stroke-width:1px;stroke-linecap:butt;stroke-linejoin:miter;stroke-opacity:1"
             id="text4773">
            <path
               d="m 1780.1155,599.93512 0,-54.26478 q -18.784,25.04528 -45.9163,42.43784 -27.1324,17.39256 -61.9175,17.39256 -34.7852,0 -59.8304,-9.73983 -25.0453,-9.73984 -43.8293,-29.2195 -43.1335,-42.43784 -43.1335,-112.00806 l 0,-202.44937 52.1776,0 0,201.05796 q 0,48.00346 27.1324,76.52725 27.1324,28.52379 70.266,28.52379 43.8292,0 74.4401,-29.21949 30.6109,-29.9152 30.6109,-76.52725 l 0,-200.36226 52.1777,0 0,347.85114 -52.1777,0 z"
               style="font-style:normal;font-variant:normal;font-weight:normal;font-stretch:normal;font-size:695.70227051px;font-family:Questrial;-inkscape-font-specification:Questrial;fill:#888888;fill-opacity:1"
               id="path4909" />
            <path
               d="m 2106.6825,246.51837 0,52.17767 -6.2613,0 q -56.3519,0 -91.8327,45.22064 -33.3937,43.13354 -33.3937,102.96394 l 0,153.0545 -52.1777,0 0,-347.85114 52.1777,0 0,85.57138 q 16.6968,-54.26477 72.353,-80.00576 22.9582,-11.13123 55.6562,-11.13123 l 3.4785,0 z"
               style="font-style:normal;font-variant:normal;font-weight:normal;font-stretch:normal;font-size:695.70227051px;font-family:Questrial;-inkscape-font-specification:Questrial;fill:#888888;fill-opacity:1"
               id="path4911" />
            <path
               d="m 2345.8301,246.51837 0,52.17767 -6.2613,0 q -56.3519,0 -91.8327,45.22064 -33.3937,43.13354 -33.3937,102.96394 l 0,153.0545 -52.1777,0 0,-347.85114 52.1777,0 0,85.57138 q 16.6969,-54.26477 72.353,-80.00576 22.9582,-11.13123 55.6562,-11.13123 l 3.4785,0 z"
               style="font-style:normal;font-variant:normal;font-weight:normal;font-stretch:normal;font-size:695.70227051px;font-family:Questrial;-inkscape-font-specification:Questrial;fill:#888888;fill-opacity:1"
               id="path4913" />
            <path
               d="m 2547.6218,558.19298 q 70.266,0 100.8769,-58.43899 l 57.0476,0 q -18.0883,47.30776 -57.7433,76.52725 -38.9594,29.2195 -100.8769,29.2195 -78.6143,0 -128.0092,-52.17767 -48.0034,-50.78627 -48.0034,-127.31352 0,-77.22295 45.9163,-127.31351 48.6992,-52.17767 126.6178,-52.17767 77.9187,0 126.6178,52.17767 45.9164,50.09056 45.9164,127.31351 l 0,20.87107 -291.4993,0 q 5.5657,48.00346 38.2637,79.31006 33.3937,32.0023 84.8756,32.0023 z m -4.1742,-264.36686 q -48.0034,0 -80.7014,29.9152 -30.6109,28.52379 -37.568,74.44014 l 236.5388,0 q -6.957,-45.91635 -37.5679,-74.44014 -32.698,-29.9152 -80.7015,-29.9152 z"
               style="font-style:normal;font-variant:normal;font-weight:normal;font-stretch:normal;font-size:695.70227051px;font-family:Questrial;-inkscape-font-specification:Questrial;fill:#888888;fill-opacity:1"
               id="path4915" />
            <path
               d="m 2832.5935,252.08398 0,54.26478 q 18.784,-25.04528 45.9164,-42.43784 27.1323,-17.39255 61.9175,-17.39255 34.7851,0 59.8304,9.73983 25.0452,9.73983 43.8292,29.21949 43.1335,42.43784 43.1335,112.00807 l 0,202.44936 -52.1776,0 0,-201.05796 q 0,-48.00345 -27.1324,-76.52725 -27.1324,-28.52379 -70.2659,-28.52379 -43.8293,0 -74.4402,29.2195 -30.6109,29.91519 -30.6109,76.52725 l 0,200.36225 -52.1777,0 0,-347.85114 52.1777,0 z"
               style="font-style:normal;font-variant:normal;font-weight:normal;font-stretch:normal;font-size:695.70227051px;font-family:Questrial;-inkscape-font-specification:Questrial;fill:#888888;fill-opacity:1"
               id="path4917" />
            <path
               d="m 3203.8811,599.93512 0,-301.93479 -70.9616,0 0,-45.91635 70.9616,0 0,-124.5307 52.1777,0 0,124.5307 80.0057,0 0,45.91635 -80.0057,0 0,301.93479 -52.1777,0 z"
               style="font-style:normal;font-variant:normal;font-weight:normal;font-stretch:normal;font-size:695.70227051px;font-family:Questrial;-inkscape-font-specification:Questrial;fill:#888888;fill-opacity:1"
               id="path4919" />
            <path
               d="m 3599.127,345.30809 q -6.957,-54.26478 -87.6585,-54.26478 -80.0058,0 -80.0058,50.09056 0,20.87107 16.6969,32.00231 17.3926,10.43553 43.1335,17.39256 25.741,6.95702 55.6562,13.21834 30.6109,5.56562 56.3519,16.69685 25.741,10.43554 42.4378,29.2195 17.3926,18.78396 17.3926,51.48197 0,50.78626 -38.2636,77.91865 -38.2637,26.43669 -103.6597,26.43669 -69.5702,0 -110.6166,-34.78512 -37.5679,-30.6109 -40.3508,-80.00576 l 54.2648,0 q 4.8699,48.00346 54.2648,64.70031 18.0883,5.56562 35.4808,5.56562 18.0883,0 33.3937,-2.0871 15.3055,-2.08711 29.9152,-7.65273 33.3937,-13.21834 33.3937,-45.22065 0,-21.56677 -17.3925,-32.698 -16.6969,-11.82694 -42.4379,-18.78396 -25.741,-7.65273 -56.3519,-13.21835 -29.9152,-6.26132 -55.6561,-16.69685 -25.741,-10.43554 -43.1336,-28.5238 -16.6968,-18.08825 -16.6968,-50.09056 0,-47.30775 34.0894,-73.04874 34.7851,-26.43668 102.2682,-26.43668 64.0046,0 100.8768,30.6109 30.6109,25.74098 35.4809,68.17882 l -52.8734,0 z"
               style="font-style:normal;font-variant:normal;font-weight:normal;font-stretch:normal;font-size:695.70227051px;font-family:Questrial;-inkscape-font-specification:Questrial;fill:#888888;fill-opacity:1"
               id="path4921" />
          </g>
        </g>
      </g>
    </g>
  </g>
</svg>
