<?xml version="1.0" encoding="UTF-8" standalone="no"?>
<svg
   xmlns:dc="http://purl.org/dc/elements/1.1/"
   xmlns:cc="http://creativecommons.org/ns#"
   xmlns:rdf="http://www.w3.org/1999/02/22-rdf-syntax-ns#"
   xmlns:svg="http://www.w3.org/2000/svg"
   xmlns="http://www.w3.org/2000/svg"
   version="1.1"
   id="svg2"
   viewBox="0 0 676.53866 624.74163"
   height="176.31596mm"
   width="190.93425mm">
  <defs
     id="defs4" />
  <metadata
     id="metadata7">
    <rdf:RDF>
      <cc:Work
         rdf:about="">
        <dc:format>image/svg+xml</dc:format>
        <dc:type
           rdf:resource="http://purl.org/dc/dcmitype/StillImage" />
        <dc:title></dc:title>
      </cc:Work>
    </rdf:RDF>
  </metadata>
  <g

     transform="translate(1350.7014,-335.68203)"
     id="layer1">
    <g
       id="text4139"
       style="font-style:normal;font-weight:normal;font-size:1298.85839844px;line-height:125%;font-family:sans-serif;letter-spacing:0px;word-spacing:0px;fill:#24b2e7;fill-opacity:1;stroke:none;stroke-width:1px;stroke-linecap:butt;stroke-linejoin:miter;stroke-opacity:1"
       transform="scale(1.08969,0.91769219)">
      <path
         id="path4152"
         style="font-style:normal;font-variant:normal;font-weight:bold;font-stretch:normal;font-family:Athelas;-inkscape-font-specification:'Athelas Bold'"
         d="m -788.82429,456.70944 q 25.97717,0 57.14977,-19.48288 31.1726,-19.48288 68.8395,-68.8395 25.97717,12.98859 35.06918,27.27603 9.092,12.98859 9.092,24.67831 0,12.98858 -6.49429,23.37945 -38.96575,49.35662 -83.12694,70.13836 -44.16118,20.78173 -79.23036,20.78173 -35.06917,0 -77.9315,-12.98858 -42.86233,-12.98859 -101.31096,-42.86233 -37.66691,-18.18402 -62.34521,-25.97717 -24.6783,-7.79315 -42.8623,-7.79315 -22.0806,0 -50.6555,15.5863 -27.276,14.28744 -71.4372,67.54064 -27.276,-11.68973 -36.368,-25.97717 -9.0921,-14.28744 -9.0921,-25.97717 0,-11.68972 6.4943,-20.78173 45.4601,-53.2532 87.0236,-71.43721 41.5634,-18.18402 72.736,-18.18402 28.5749,0 63.6441,10.39087 35.06916,10.39086 85.72464,35.06917 49.35662,25.97717 80.52922,36.36804 31.1726,9.09201 54.55205,9.09201 z" />
    </g>
    <g
       id="text4151"
       style="font-style:normal;font-weight:normal;font-size:1004.67877197px;line-height:125%;font-family:sans-serif;letter-spacing:0px;word-spacing:0px;fill:#24b2e7;fill-opacity:1;stroke:none;stroke-width:1px;stroke-linecap:butt;stroke-linejoin:miter;stroke-opacity:1"
       transform="scale(1.08969,0.91769222)" />
    <g
       id="text4155"
       style="font-style:normal;font-weight:normal;font-size:1004.67877197px;line-height:125%;font-family:sans-serif;letter-spacing:0px;word-spacing:0px;fill:#24b2e7;fill-opacity:1;stroke:none;stroke-width:1px;stroke-linecap:butt;stroke-linejoin:miter;stroke-opacity:1"
       transform="scale(1.08969,0.91769222)" />
    <g
       id="text4159"
       style="font-style:normal;font-weight:normal;font-size:1298.85839844px;line-height:125%;font-family:sans-serif;letter-spacing:0px;word-spacing:0px;fill:#24b2e7;fill-opacity:1;stroke:none;stroke-width:1px;stroke-linecap:butt;stroke-linejoin:miter;stroke-opacity:1"
       transform="scale(1.08969,0.91769219)">
      <path
         id="path4157"
         style="font-style:normal;font-variant:normal;font-weight:bold;font-stretch:normal;font-family:Athelas;-inkscape-font-specification:'Athelas Bold'"
         d="m -788.82429,968.63259 q 25.97717,0 57.14977,-19.48287 31.1726,-19.48288 68.8395,-68.8395 25.97717,12.98859 35.06918,27.27603 9.092,12.98858 9.092,24.67831 0,12.98858 -6.49429,23.37945 -38.96575,49.35659 -83.12694,70.13839 -44.16118,20.7817 -79.23036,20.7817 -35.06917,0 -77.9315,-12.9886 -42.86233,-12.9886 -101.31096,-42.86231 -37.66691,-18.18402 -62.34521,-25.97717 -24.6783,-7.79315 -42.8623,-7.79315 -22.0806,0 -50.6555,15.5863 -27.276,14.28744 -71.4372,67.54063 -27.276,-11.6897 -36.368,-25.9772 -9.0921,-14.28741 -9.0921,-25.97713 0,-11.68973 6.4943,-20.78174 45.4601,-53.25319 87.0236,-71.43721 41.5634,-18.18402 72.736,-18.18402 28.5749,0 63.6441,10.39087 35.06916,10.39087 85.72464,35.06918 49.35662,25.97717 80.52922,36.36803 31.1726,9.09201 54.55205,9.09201 z" />
    </g>
    <g
       id="text4163"
       style="font-style:normal;font-weight:normal;font-size:1298.85839844px;line-height:125%;font-family:sans-serif;letter-spacing:0px;word-spacing:0px;fill:#24b2e7;fill-opacity:1;stroke:none;stroke-width:1px;stroke-linecap:butt;stroke-linejoin:miter;stroke-opacity:1"
       transform="scale(1.08969,0.91769219)">
      <path
         id="path4160"
         style="font-style:normal;font-variant:normal;font-weight:bold;font-stretch:normal;font-family:Athelas;-inkscape-font-specification:'Athelas Bold'"
         d="m -788.82429,712.67104 q 25.97717,0 57.14977,-19.48287 31.1726,-19.48288 68.8395,-68.8395 25.97717,12.98859 35.06918,27.27603 9.092,12.98858 9.092,24.67831 0,12.98858 -6.49429,23.37945 -38.96575,49.35662 -83.12694,70.13835 -44.16118,20.78174 -79.23036,20.78174 -35.06917,0 -77.9315,-12.98859 -42.86233,-12.98858 -101.31096,-42.86232 -37.66691,-18.18402 -62.34521,-25.97717 -24.6783,-7.79315 -42.8623,-7.79315 -22.0806,0 -50.6555,15.5863 -27.276,14.28744 -71.4372,67.54064 -27.276,-11.68973 -36.368,-25.97717 -9.0921,-14.28744 -9.0921,-25.97717 0,-11.68972 6.4943,-20.78173 45.4601,-53.2532 87.0236,-71.43722 41.5634,-18.18401 72.736,-18.18401 28.5749,0 63.6441,10.39086 35.06916,10.39087 85.72464,35.06918 49.35662,25.97717 80.52922,36.36804 31.1726,9.092 54.55205,9.092 z" />
    </g>
  </g>
</svg>
