<svg version="1" xmlns="http://www.w3.org/2000/svg" width="400" height="400" viewBox="0 0 300.000000 300.000000"><path d="M136 1.6c-51.3 8-93.8 38.2-115.9 82.1-3.7 7.3-8.6 19.1-9.7 23.3-5.3 20.5-6.3 28-5.9 46.5 1 54.1 30.9 101.7 80.5 128.3 23.8 12.8 48.7 18.4 78.5 17.7 30.4-.7 57.4-9.4 83-26.7 10.6-7.2 14.5-10.2 14.5-11.3 0-.4-4.1-5.4-9.1-11.1l-9.1-10.4-3.1 2.5c-1.8 1.4-3.7 3-4.4 3.5-3.6 2.9-15.7 10.2-21.5 12.9-8.7 4-23.4 8.9-28.8 9.6-2.4.3-6.4 1-8.9 1.6-5 1.1-27.2 1.4-33.6.4-14.4-2.3-30.5-7-40-11.7-62.7-31.4-87.3-102-56.6-162.5 16.8-33.2 48.6-57.2 86.2-64.8 4.6-1 9.5-1.9 10.9-2.1 4.2-.6 27.7-.6 29.7-.1 1 .3 4 .9 6.8 1.2 18.9 2.4 42.7 12.9 59.3 26.4 2.8 2.2 4.6 3.1 5 2.4.7-1.2 9.3-11.1 14.9-17.2l3.1-3.4-4.6-3.9C241 21.4 212 7.2 195 4.4c-1.9-.3-3.8-.8-4.1-.9-.3-.2-2.8-.7-5.5-1.1-2.7-.3-5.3-.8-5.8-1.1-2-1.2-35.5-1-43.6.3z"/><path d="M140.1 83c-16.7 4.5-30.9 14.3-40.1 27.9-6.4 9.5-8.7 15.2-11 27.2-6.2 31.9 13.9 66.6 44.6 76.9 9.4 3.2 10.2 3.3 22.2 3.6 16.5.4 27.4-2.8 40.2-11.7 7.4-5.1 8.7-6.4 14.7-13.6 5.9-7.1 10.7-16.8 13.3-26.8 2.4-8.9 2.1-27.2-.5-35.5-7.8-24.8-26.5-42.6-51.3-48.5-8.4-2-23.5-1.8-32.1.5zm30.4 28.9c20.9 7.4 32 30.6 24.6 51.6-4.4 12.4-14.3 21.7-27.1 25.3-22.5 6.4-45.3-7.3-50.5-30.2-4.1-18.2 5.2-37.1 22.3-45.2 9.7-4.6 20.4-5.1 30.7-1.5z"/></svg>